<!-- Generator: Adobe Illustrator 24.2.1, SVG Export Plug-In  -->
<svg version="1.1" xmlns="http://www.w3.org/2000/svg" xmlns:xlink="http://www.w3.org/1999/xlink" x="0px" y="0px" width="292.9px"
     height="292.9px" viewBox="0 0 292.9 292.9" style="overflow:visible;enable-background:new 0 0 292.9 292.9;"
     xml:space="preserve">
<defs>
</defs>
<path d="M291.1,1.8c-1.4-1.4-3.3-2-5.3-1.7c-19.3,3.4-38.3,8-56.9,13.9c-1.9,0.6-3.4,2.1-4,4.1l-14.1,46.2
    c-0.3,1-1.1,1.8-2.2,2.1c-1,0.3-2.1,0-2.9-0.8l-28.1-28.1c-1.8-1.8-4.6-2.3-6.9-1.2c-30.4,13.4-58.2,32-82.2,55
    c-31.4,31.4-46.5,61.2-44.8,88.8c1,13.6,6,26.7,14.5,37.4L3.6,272.2c-4.8,4.8-4.8,12.5,0,17.3c4.8,4.7,12.5,4.7,17.3,0L153,157.2
    c3.5-3.6,9.3-3.7,12.9-0.2s3.7,9.3,0.2,12.9c-0.1,0.1-0.1,0.2-0.2,0.2l-70.7,70.7c-1.2,1.2-1.2,3.1,0,4.3c0.3,0.3,0.8,0.6,1.2,0.7
    c22.5,6.3,46.5,2.5,66-10.3c14.3-8.7,27.5-19.2,39.2-31.2c70.6-70.6,90.4-192.2,91.2-197.3C293.2,5.1,292.5,3.2,291.1,1.8z"/>
</svg>
